<?xml version="1.0" standalone="no"?>
<!DOCTYPE svg PUBLIC "-//W3C//DTD SVG 20010904//EN"
 "http://www.w3.org/TR/2001/REC-SVG-20010904/DTD/svg10.dtd">
<svg version="1.0" xmlns="http://www.w3.org/2000/svg"
 width="512.000000pt" height="512.000000pt" viewBox="0 0 512.000000 512.000000"
 preserveAspectRatio="xMidYMid meet">

<g transform="translate(0.000000,512.000000) scale(0.100000,-0.100000)"
fill="#000000" stroke="none">
<path d="M3375 5056 c-62 -27 -91 -76 -145 -244 -57 -181 -61 -226 -25 -287
29 -50 51 -66 125 -90 30 -9 58 -20 62 -24 5 -4 -17 -82 -48 -173 l-55 -166
-117 5 c-120 6 -341 -10 -372 -27 -9 -5 -23 -22 -29 -39 -10 -24 -10 -34 3
-59 9 -17 25 -33 35 -37 11 -3 65 -1 121 5 130 13 235 13 358 -1 658 -71 1219
-466 1497 -1052 253 -534 246 -1116 -22 -1647 -88 -175 -175 -299 -306 -437
-162 -169 -316 -283 -525 -388 -397 -198 -863 -247 -1295 -135 -797 205 -1362
905 -1394 1726 -7 190 7 337 47 504 66 267 171 490 330 700 210 275 499 492
825 617 49 19 98 42 108 51 40 36 6 122 -49 122 -36 0 -159 -47 -289 -111
l-121 -59 -311 0 -312 0 -20 -26 c-27 -35 -26 -57 3 -91 l24 -28 196 -5 196
-5 -55 -44 c-92 -74 -267 -261 -342 -366 -91 -128 -152 -234 -212 -371 l-49
-109 -279 -2 c-269 -3 -279 -4 -295 -24 -25 -29 -23 -81 3 -105 19 -17 42 -19
270 -22 137 -2 249 -6 249 -10 0 -4 -11 -55 -24 -114 -38 -167 -50 -309 -43
-502 4 -94 11 -191 16 -216 5 -25 7 -48 5 -52 -3 -5 -191 -8 -419 -8 l-414 0
-20 -26 c-27 -35 -26 -57 3 -91 l24 -28 432 -5 432 -5 39 -120 c75 -230 215
-482 372 -670 l75 -90 -345 -5 -345 -5 -24 -28 c-29 -34 -30 -56 -3 -91 l20
-26 433 0 433 0 59 -46 c185 -145 405 -260 635 -333 635 -201 1348 -65 1869
356 103 83 273 260 349 363 216 291 353 645 390 1009 74 723 -268 1450 -876
1863 -32 22 -64 43 -71 47 -11 6 -3 42 38 172 29 90 54 167 56 171 3 4 30 -2
61 -13 101 -35 185 -20 237 42 28 32 136 348 136 394 -1 45 -34 109 -71 138
-20 14 -121 54 -237 92 -181 59 -206 66 -232 55 -39 -16 -56 -59 -38 -97 12
-25 33 -35 215 -96 141 -48 204 -74 208 -86 3 -9 -17 -82 -43 -161 -44 -131
-51 -145 -73 -147 -37 -4 -1070 340 -1083 360 -14 22 78 305 101 314 9 4 107
-24 219 -60 202 -67 221 -70 257 -39 23 20 22 77 -2 101 -24 24 -417 151 -467
151 -21 -1 -53 -7 -69 -14z m454 -787 c152 -50 278 -93 281 -95 7 -7 -93 -304
-103 -304 -5 0 -40 14 -79 31 -144 63 -292 111 -429 139 l-57 11 51 154 c29
85 54 155 56 155 2 0 128 -41 280 -91z"/>
<path d="M20 3788 c-42 -45 -15 -111 52 -123 18 -3 244 -5 501 -3 l469 3 19
24 c25 30 24 76 -1 101 -19 19 -33 20 -520 20 l-499 0 -21 -22z"/>
<path d="M2905 3639 c-177 -23 -401 -96 -557 -182 -201 -109 -411 -294 -535
-470 -120 -170 -219 -398 -264 -605 -26 -127 -36 -374 -19 -508 75 -606 495
-1122 1068 -1314 186 -62 265 -74 502 -75 170 0 232 4 297 18 201 43 358 103
518 198 587 346 888 1050 735 1714 -168 727 -815 1240 -1555 1234 -66 -1 -151
-6 -190 -10z m466 -164 c47 -9 90 -20 97 -24 8 -5 -39 -162 -161 -531 l-173
-525 -57 -7 c-32 -4 -85 -19 -117 -34 l-59 -26 -250 228 c-138 126 -262 233
-275 238 -51 19 -106 -33 -92 -87 3 -15 105 -115 266 -262 180 -164 259 -242
255 -253 -47 -123 -23 -250 65 -346 44 -48 128 -96 167 -96 30 0 30 -2 47
-140 12 -96 18 -117 36 -132 30 -24 71 -23 99 4 22 20 23 26 17 102 -3 45 -9
102 -12 127 -6 46 -6 46 38 72 25 14 62 45 83 68 l38 42 56 -17 c238 -73 1001
-331 1001 -339 0 -5 -20 -50 -44 -100 -112 -232 -279 -424 -494 -568 -41 -27
-77 -49 -81 -49 -4 0 -27 41 -51 91 -25 50 -53 95 -62 100 -27 15 -74 10 -90
-8 -32 -36 -29 -57 17 -152 25 -51 45 -96 45 -101 0 -14 -243 -88 -348 -106
-130 -21 -395 -15 -517 11 -44 9 -81 19 -83 20 -2 2 10 46 27 99 37 114 37
116 10 150 -27 34 -77 36 -106 4 -11 -13 -33 -62 -49 -110 -15 -49 -33 -88
-39 -88 -24 0 -185 85 -275 145 -126 84 -243 194 -335 316 -71 94 -111 157
-103 164 2 1 44 23 94 48 50 25 94 53 98 62 11 31 6 72 -11 87 -38 33 -59 30
-154 -18 -88 -44 -93 -45 -106 -28 -18 25 -68 181 -90 284 -26 121 -25 418 1
548 10 51 22 94 26 97 3 2 49 -9 101 -25 52 -17 100 -30 107 -30 24 0 62 48
62 78 0 42 -33 66 -132 98 -49 15 -88 33 -88 39 0 20 94 198 142 270 104 155
248 298 406 400 40 26 75 45 77 43 1 -1 23 -45 49 -95 37 -74 51 -94 72 -99
39 -10 77 7 93 40 13 28 11 35 -33 124 -26 52 -44 98 -39 102 27 26 294 99
413 114 75 9 338 -3 421 -19z m400 -142 c376 -194 648 -556 741 -986 30 -138
32 -405 5 -549 -11 -54 -22 -100 -26 -102 -4 -3 -243 73 -532 167 l-524 173
-7 57 c-10 82 -41 144 -100 204 l-51 52 173 525 c162 490 175 526 194 520 12
-3 69 -31 127 -61z m-573 -1120 c93 -69 106 -191 28 -269 -84 -84 -219 -62
-273 46 -46 91 -14 183 82 235 40 21 126 15 163 -12z"/>
<path d="M325 3265 c-14 -13 -25 -36 -25 -50 0 -14 11 -37 25 -50 l24 -25 379
0 c367 0 379 1 400 20 32 30 30 82 -4 109 -26 20 -37 21 -401 21 l-374 0 -24
-25z"/>
<path d="M25 2215 c-14 -13 -25 -36 -25 -50 0 -14 11 -37 25 -50 l24 -25 289
0 c268 0 292 1 313 19 32 26 32 86 0 112 -21 18 -45 19 -313 19 l-289 0 -24
-25z"/>
<path d="M485 1165 c-14 -13 -25 -36 -25 -50 0 -14 11 -37 25 -50 24 -25 25
-25 233 -25 190 0 212 2 233 19 17 13 23 29 23 56 0 27 -6 43 -23 56 -21 17
-43 19 -233 19 -208 0 -209 0 -233 -25z"/>
</g>
</svg>
